<?xml version="1.0" standalone="no"?>
<!DOCTYPE svg PUBLIC "-//W3C//DTD SVG 20010904//EN"
 "http://www.w3.org/TR/2001/REC-SVG-20010904/DTD/svg10.dtd">
<svg version="1.0" xmlns="http://www.w3.org/2000/svg"
 width="260.000000pt" height="260.000000pt" viewBox="0 0 260.000000 260.000000"
 preserveAspectRatio="xMidYMid meet">
<metadata>
Created by potrace 1.14, written by Peter Selinger 2001-2017
</metadata>
<g transform="translate(0.000000,260.000000) scale(0.100000,-0.100000)"
fill="#000000" stroke="none">
<path d="M1473 2280 c-145 -38 -193 -73 -298 -214 -121 -164 -190 -224 -388
-336 -174 -99 -255 -157 -342 -244 -95 -95 -148 -173 -186 -270 -71 -186 -58
-362 45 -578 61 -128 132 -234 191 -286 53 -47 156 -100 210 -109 19 -3 33 -9
30 -13 -7 -12 107 -59 172 -71 82 -16 240 -4 348 25 293 79 555 257 708 479
33 49 98 130 144 180 202 220 314 409 344 581 21 121 -8 285 -66 370 -14 20
-25 41 -25 47 0 23 -72 165 -108 211 -39 52 -206 173 -284 207 -105 45 -362
56 -495 21z m380 -44 c89 -17 123 -34 241 -118 147 -104 216 -232 224 -414 2
-56 -1 -125 -7 -153 -36 -167 -151 -358 -325 -540 -70 -74 -130 -147 -162
-201 -62 -102 -181 -221 -299 -298 -336 -221 -721 -286 -938 -159 -154 90
-317 412 -317 625 0 163 64 312 192 447 85 90 190 166 366 265 155 88 263 176
339 280 140 189 198 235 337 265 82 18 257 18 349 1z"/>
<path d="M1430 2025 c0 -2 37 -26 83 -53 132 -78 218 -136 281 -186 32 -26 60
-45 64 -42 3 3 -5 29 -19 57 -43 92 -154 172 -284 203 -79 19 -125 27 -125 21z"/>
<path d="M1570 1718 c0 -13 212 -219 219 -213 12 13 -100 155 -153 193 -47 34
-66 40 -66 20z"/>
<path d="M788 1609 c-10 -5 -18 -14 -18 -18 0 -14 50 -31 93 -31 l42 1 -33 29
c-34 31 -55 36 -84 19z"/>
<path d="M2087 1373 c-11 -10 -8 -82 4 -104 8 -17 13 -18 25 -8 32 26 35 46
13 83 -21 36 -30 42 -42 29z"/>
<path d="M375 960 c-8 -13 13 -40 31 -40 17 0 18 22 2 38 -15 15 -25 15 -33 2z"/>
<path d="M418 849 c-22 -13 -23 -33 -2 -65 38 -57 84 -51 84 12 0 23 -7 38
-22 48 -26 18 -36 19 -60 5z"/>
<path d="M690 741 c0 -14 83 -121 121 -156 l32 -30 -33 60 c-18 33 -45 73 -59
88 -30 33 -61 52 -61 38z"/>
<path d="M1114 677 c-8 -21 1 -47 16 -47 19 0 23 31 7 48 -15 14 -17 14 -23
-1z"/>
<path d="M535 609 c-9 -14 24 -49 47 -49 21 0 25 29 6 48 -15 15 -45 16 -53 1z"/>
<path d="M1229 574 c-20 -24 1 -49 42 -49 25 0 35 5 37 19 8 38 -53 61 -79 30z"/>
</g>
</svg>
