<?xml version="1.0" standalone="no"?>
<!DOCTYPE svg PUBLIC "-//W3C//DTD SVG 20010904//EN"
 "http://www.w3.org/TR/2001/REC-SVG-20010904/DTD/svg10.dtd">
<svg version="1.0" xmlns="http://www.w3.org/2000/svg"
 width="1024.000000pt" height="1024.000000pt" viewBox="0 0 1024.000000 1024.000000"
 preserveAspectRatio="xMidYMid meet">
<metadata>
Created by potrace 1.14, written by Peter Selinger 2001-2017
</metadata>
<g transform="translate(0.000000,1024.000000) scale(0.100000,-0.100000)"
fill="#000000" stroke="none">
<path d="M6509 9416 c-2 -2 -49 -7 -104 -10 -55 -4 -113 -9 -130 -11 -16 -3
-46 -7 -65 -9 -72 -9 -138 -21 -330 -61 -57 -11 -252 -73 -339 -107 -397 -155
-624 -335 -861 -683 -30 -44 -57 -82 -60 -85 -3 -3 -23 -32 -45 -65 -232 -352
-428 -574 -730 -826 -249 -209 -510 -382 -905 -599 -285 -157 -497 -277 -548
-311 -24 -16 -45 -29 -47 -29 -10 0 -351 -236 -415 -287 -8 -6 -53 -42 -100
-80 -84 -66 -97 -78 -209 -177 -60 -54 -322 -316 -357 -358 -12 -14 -50 -61
-85 -104 -35 -44 -66 -81 -69 -84 -3 -3 -29 -36 -57 -75 -246 -338 -427 -731
-508 -1105 -52 -240 -63 -356 -59 -620 1 -124 5 -234 7 -246 3 -11 8 -45 11
-75 36 -335 185 -790 397 -1212 132 -264 338 -612 466 -787 18 -25 37 -50 41
-55 25 -36 148 -170 207 -226 159 -153 300 -250 510 -352 207 -101 449 -176
655 -203 25 -3 56 -7 70 -9 166 -28 598 -27 813 0 20 3 56 7 80 11 90 11 277
45 382 69 61 14 121 28 135 31 14 2 34 8 45 11 11 4 25 8 30 9 36 7 139 37
190 54 33 11 61 21 62 21 8 -1 304 100 322 108 9 5 43 19 76 31 77 30 254 104
325 137 798 370 1433 821 1899 1348 180 203 216 255 401 570 62 105 137 226
168 270 53 74 228 257 447 466 243 233 570 627 770 929 17 25 33 47 36 50 6 5
74 114 158 253 81 135 193 349 255 490 9 20 23 54 32 74 33 73 116 299 135
368 47 164 79 298 94 390 27 160 39 316 38 465 -1 102 -10 246 -18 288 -2 11
-7 42 -11 69 -6 46 -8 57 -19 106 -3 12 -8 38 -11 57 -13 72 -89 334 -119 405
-7 17 -31 76 -55 132 -110 267 -269 520 -439 698 -114 120 -232 213 -344 270
-21 11 -118 79 -215 150 -97 72 -214 155 -260 183 -180 115 -419 209 -632 251
-119 23 -180 34 -270 46 -25 3 -56 8 -70 10 -14 2 -59 6 -100 10 -41 4 -88 9
-105 12 -38 5 -560 14 -566 9z"/>
</g>
</svg>
